<svg width="20" height="20" viewBox="0 0 20 20" fill="none" xmlns="http://www.w3.org/2000/svg">
<path d="M11.9138 6.56049H8.08601V13.4392H11.9138V6.56049Z" fill="#FF5F00"/>
<path d="M8.32926 9.99999C8.32926 8.60449 8.98276 7.36174 10 6.56049C9.25601 5.97474 8.31701 5.62524 7.29651 5.62524C4.88051 5.62524 2.92226 7.58374 2.92226 9.99999C2.92226 12.4162 4.88076 14.3747 7.29651 14.3747C8.31701 14.3747 9.25601 14.0252 10 13.4395C8.98251 12.6385 8.32926 11.3955 8.32926 9.99999Z" fill="#EB001B"/>
<path d="M17.078 9.99999C17.078 12.416 15.1195 14.3747 12.7038 14.3747C11.6833 14.3747 10.7443 14.0252 10.0003 13.4395C11.0178 12.6385 11.671 11.3955 11.671 9.99999C11.671 8.60449 11.0178 7.36174 10.0003 6.56049C10.7443 5.97474 11.6833 5.62524 12.7038 5.62524C15.1198 5.62524 17.078 7.58374 17.078 9.99999Z" fill="#F79E1B"/>
<path d="M16.6605 12.7107V12.57H16.7173V12.5412H16.5728V12.57H16.6295V12.7107H16.6605ZM16.9413 12.7107V12.541H16.897L16.846 12.6577L16.795 12.541H16.7508V12.7107H16.782V12.5827L16.8298 12.6932H16.8623L16.91 12.5825V12.7107H16.9413Z" fill="#F79E1B"/>
</svg>
