<svg width="20" height="20" viewBox="0 0 20 20" fill="none" xmlns="http://www.w3.org/2000/svg">
<rect width="20" height="20" fill="black"/>
<path d="M5.40825 7.63574C5.02875 7.63574 4.64225 7.79549 4.396 8.04874L4.53575 8.32849L4.47675 8.37574C4.2155 7.92524 3.73625 7.63574 3.22375 7.63574C2.4245 7.63574 1.7785 8.33499 1.7785 9.15424V10.919C1.7785 10.9855 1.825 11.0322 1.89175 11.0322H2.47125C2.53125 11.0322 2.57775 10.9855 2.57775 10.9257V9.14099C2.57775 8.73474 2.82425 8.40174 3.24375 8.40174C3.63675 8.40174 3.91625 8.69474 3.91625 9.12774V10.593C3.91625 10.6595 3.96275 10.7062 4.02275 10.7062H4.5755C4.642 10.7062 4.682 10.653 4.682 10.593V9.12774C4.682 8.69474 4.975 8.40174 5.368 8.40174C5.7875 8.40174 6.02075 8.73474 6.02075 9.14099V10.9257C6.02075 10.979 6.06725 11.0322 6.134 11.0322H6.70675C6.78 11.0322 6.82 10.979 6.82 10.919V9.15424C6.82 8.33499 6.20075 7.63574 5.40825 7.63574Z" fill="#00F796"/>
<path d="M8.83901 10.353C8.26626 10.353 7.86676 9.94674 7.86676 9.37399C7.86676 8.80124 8.26626 8.38174 8.83901 8.38174C9.41176 8.38174 9.83126 8.79474 9.83126 9.37399C9.83126 9.95324 9.41826 10.353 8.83901 10.353ZM10.5905 7.70249H10.0645C10.0045 7.70249 9.95126 7.74249 9.95126 7.80899V7.88224L10.1378 8.17524L10.0873 8.22574C9.77976 7.87649 9.34001 7.63599 8.83901 7.63599C7.89326 7.63599 7.11426 8.40849 7.11426 9.37424C7.11426 10.34 7.89351 11.099 8.83901 11.099C9.34401 11.099 9.78651 10.8602 10.0945 10.5107L10.1378 10.5462L9.95126 10.8525V10.919C9.95126 10.9855 10.0045 11.0322 10.0645 11.0322H10.5905C10.657 11.0322 10.7038 10.9857 10.7038 10.919V7.80899C10.7038 7.74249 10.6573 7.70249 10.5905 7.70249Z" fill="#00F796"/>
<path d="M16.3565 10.353C15.7837 10.353 15.3842 9.94674 15.3842 9.37399C15.3842 8.80124 15.7837 8.38174 16.3565 8.38174C16.9292 8.38174 17.3487 8.79474 17.3487 9.37399C17.3487 9.95324 16.9357 10.353 16.3565 10.353ZM18.108 7.70249H17.582C17.522 7.70249 17.4687 7.74249 17.4687 7.80899V7.88224L17.6552 8.17524L17.6047 8.22574C17.2972 7.87649 16.8575 7.63599 16.3565 7.63599C15.4107 7.63599 14.6317 8.40849 14.6317 9.37424C14.6317 10.34 15.411 11.099 16.3565 11.099C16.8615 11.099 17.304 10.8602 17.612 10.5107L17.6552 10.5462L17.4687 10.8525V10.919C17.4687 10.9855 17.522 11.0322 17.582 11.0322H18.108C18.1745 11.0322 18.2212 10.9857 18.2212 10.919V7.80899C18.2212 7.74249 18.1747 7.70249 18.108 7.70249Z" fill="#00F796"/>
<path d="M14.194 7.7025H13.6545C13.568 7.7025 13.5213 7.749 13.5213 7.79575V9.42075C13.5213 9.927 13.1883 10.2797 12.6755 10.2797C12.2028 10.2797 11.8963 9.92675 11.8963 9.42075V7.79575C11.8963 7.74925 11.823 7.7025 11.7763 7.7025H11.1968C11.1503 7.7025 11.1035 7.749 11.1035 7.79575V9.414C11.1035 10.2797 11.7828 11.0322 12.6753 11.0322C13.0913 11.0322 13.4778 10.8765 13.7708 10.619L13.8008 10.646L13.561 10.9722V11.0987C13.561 11.4317 13.0615 11.6182 12.7685 11.6182H12.582C12.5155 11.6182 12.462 11.6647 12.462 11.7247V12.2575C12.462 12.3107 12.5153 12.364 12.582 12.364H12.7685C13.661 12.364 14.3135 11.8445 14.3135 10.8655V7.79525C14.3135 7.74875 14.267 7.702 14.1935 7.702" fill="#00F796"/>
</svg>
