<svg width="20" height="20" viewBox="0 0 20 20" fill="none" xmlns="http://www.w3.org/2000/svg">
<path d="M10.2813 9.04676C10.272 9.78326 10.9378 10.1943 11.4393 10.4388C11.9545 10.6895 12.1275 10.8503 12.1258 11.0745C12.1218 11.4178 11.7148 11.5693 11.3338 11.575C10.669 11.5853 10.2825 11.3955 9.97525 11.252L9.73575 12.3725C10.044 12.5145 10.6148 12.6385 11.2068 12.644C12.5963 12.644 13.5053 11.958 13.5103 10.8945C13.5158 9.54476 11.6433 9.47001 11.6563 8.86676C11.6608 8.68376 11.8353 8.48876 12.2178 8.43901C12.407 8.41401 12.9298 8.39476 13.5223 8.66776L13.7548 7.58351C13.4363 7.46751 13.0265 7.35626 12.5168 7.35626C11.209 7.35626 10.289 8.05151 10.2815 9.04676H10.2813ZM15.9893 7.44976C15.7355 7.44976 15.5218 7.59776 15.4263 7.82501L13.4413 12.5643H14.8298L15.106 11.8008H16.8028L16.963 12.5643H18.1868L17.1188 7.44976H15.989H15.9893ZM16.1833 8.83126L16.584 10.7518H15.4865L16.1833 8.83126ZM8.59775 7.44976L7.50325 12.5643H8.82625L9.92025 7.44976H8.59775ZM6.6405 7.44976L5.26325 10.9308L4.70625 7.97076C4.64075 7.64026 4.38275 7.44951 4.096 7.44951H1.8445L1.813 7.59801C2.27525 7.69826 2.80025 7.86001 3.1185 8.03326C3.31325 8.13901 3.36875 8.23151 3.43275 8.48276L4.488 12.5643H5.88625L8.03 7.44976H6.6405Z" fill="url(#paint0_linear_6271_12098)"/>
<defs>
<linearGradient id="paint0_linear_6271_12098" x1="9.2585" y1="12.8283" x2="9.41308" y2="7.39664" gradientUnits="userSpaceOnUse">
<stop stop-color="#222357"/>
<stop offset="1" stop-color="#254AA5"/>
</linearGradient>
</defs>
</svg>
